<?xml version="1.0" encoding="UTF-8"?>
<svg width="32px" height="32px" viewBox="0 0 32 32" version="1.1"
    xmlns="http://www.w3.org/2000/svg"
    xmlns:xlink="http://www.w3.org/1999/xlink">
    <!-- Generator: Sketch 62 (91390) - https://sketch.com -->
    <title>28520864-5493-4A45-B2F5-2EAD039C1021</title>
    <desc>Created with Sketch.</desc>
    <defs>
        <polygon id="path-1" points="0.06 0 32 0 32 31.9996386 0.06 31.9996386"></polygon>
    </defs>
    <g id="Page-1" stroke="none" stroke-width="1" fill="none" fill-rule="evenodd">
        <g id="webform" transform="translate(-55.000000, -14.000000)">
            <g id="header">
                <g id="logo" transform="translate(55.000000, 14.000000)">
                    <mask id="mask-2" fill="white">
                        <use xlink:href="#path-1"></use>
                    </mask>
                    <g id="Clip-2"></g>
                    <path d="M18.013,26.61 C19.152,28.239 20.579,29.639 22.209,30.744 C24.853,29.634 27.109,27.841 28.788,25.608 C27.469,25.821 26.117,26.009 24.729,26.161 C22.415,26.415 20.164,26.561 18.013,26.61" id="Fill-1" fill="#00A3DA" mask="url(#mask-2)"></path>
                    <path d="M24.752,2.607 C18.47,5.373 14.407,11.948 15.195,19.135 C15.378,20.812 15.821,22.394 16.465,23.859 L13.637,23.124 C13.211,21.944 12.902,20.704 12.759,19.402 C12.48,16.851 12.812,14.374 13.636,12.115 C7.096,14.451 3.041,17.332 3.308,19.758 C3.734,23.649 15.186,25.639 29.54,24.515 C31.398,21.564 32.313,17.992 31.904,14.257 C31.362,9.308 28.616,5.136 24.752,2.607" id="Fill-3" fill="#00A3DA" mask="url(#mask-2)"></path>
                    <path d="M15.404,26.622 C10.08,26.548 5.557,25.839 2.536,24.643 C5.714,29.585 11.504,32.587 17.743,31.903 C18.643,31.804 19.516,31.63 20.361,31.392 C18.397,30.178 16.699,28.557 15.404,26.622" id="Fill-4" fill="#00A3DA" mask="url(#mask-2)"></path>
                    <path d="M13.762,11.785 C15.527,7.255 19.291,3.66 24.081,2.192 C21.218,0.513 17.811,-0.293 14.257,0.096 C5.477,1.058 -0.861,8.954 0.095,17.732 C2.487,15.441 7.439,13.283 13.762,11.785" id="Fill-5" fill="#00A3DA" mask="url(#mask-2)"></path>
                </g>
            </g>
        </g>
    </g>
</svg>